<svg width="167" height="167" viewBox="0 0 167 167" fill="none" xmlns="http://www.w3.org/2000/svg">
<path d="M167 83.5C167 129.616 129.616 167 83.5 167C37.3842 167 0 129.616 0 83.5C0 37.3842 37.3842 0 83.5 0C129.616 0 167 37.3842 167 83.5Z" fill="#365D5C"/>
<path fill-rule="evenodd" clip-rule="evenodd" d="M108.494 11.217L109.066 11.3729C109.134 11.3916 109.206 11.411 109.281 11.4312C110.176 11.6736 111.477 12.0256 112.536 12.5666C113.111 12.8602 113.671 13.2367 114.06 13.7301C114.466 14.2458 114.68 14.8871 114.532 15.6275C114.377 16.4019 113.999 16.9742 113.455 17.3428C112.928 17.6995 112.307 17.8254 111.72 17.8374C111.164 17.8487 110.592 17.7588 110.066 17.6221L111.995 22.25L110.795 22.75L108.409 17.0231L107.806 16.8222L106.511 20.7056L105.278 20.2945L106.782 15.7831L108.494 11.217ZM108.24 15.5967L109.144 15.898L109.185 15.9187C109.794 16.223 110.813 16.5556 111.694 16.5377C112.128 16.5288 112.476 16.4359 112.725 16.2667C112.958 16.1092 113.162 15.8482 113.257 15.3726C113.32 15.0568 113.244 14.7951 113.039 14.5346C112.816 14.2519 112.444 13.9791 111.945 13.7243C111.136 13.3109 110.143 13.0162 109.295 12.7828L108.24 15.5967Z" fill="white"/>
<path d="M42.8385 29.9027L41.789 19.3346L43.1956 18.5225L52.0721 24.5716L50.5848 25.4304L47.9685 23.5566L43.843 25.9385L44.2249 29.1023L42.8385 29.9027ZM43.6984 24.8177L47.0433 22.8866L44.6736 21.1601C43.9524 20.6364 43.3847 20.1918 42.9703 19.8264C43.1549 20.4363 43.2857 21.0722 43.3628 21.734L43.6984 24.8177Z" fill="white"/>
<path d="M55.3575 22.9941L51.7812 14.1426L53.2163 13.5628L61.5767 18.269L58.7689 11.3194L60.1102 10.7775L63.6864 19.629L62.2514 20.2088L53.8885 15.4966L56.6988 22.4522L55.3575 22.9941Z" fill="white"/>
<path d="M67.4808 18.4018L65.6616 9.04272L69.4721 8.30204C70.3323 8.13483 70.9975 8.05192 71.4676 8.05329C72.1254 8.05352 72.7096 8.17185 73.2202 8.40828C73.8848 8.71195 74.4237 9.16151 74.837 9.75695C75.2545 10.3472 75.5444 11.0594 75.7065 11.8935C75.8447 12.6043 75.869 13.2533 75.7795 13.8404C75.6901 14.4276 75.5271 14.9319 75.2906 15.3533C75.0532 15.7705 74.7712 16.119 74.4445 16.3989C74.122 16.6736 73.7121 16.9145 73.2146 17.1216C72.7222 17.3278 72.1415 17.4959 71.4724 17.6259L67.4808 18.4018ZM68.73 17.0128L71.0917 16.5537C71.8212 16.412 72.3809 16.2435 72.7711 16.0484C73.1663 15.8523 73.4668 15.6261 73.6728 15.3696C73.9628 15.0085 74.1554 14.5625 74.2506 14.0316C74.35 13.4955 74.331 12.8742 74.1937 12.1677C74.0034 11.1888 73.6662 10.4748 73.1822 10.0256C72.7023 9.5712 72.1734 9.30742 71.5953 9.23427C71.1781 9.18285 70.5344 9.24173 69.6642 9.41089L67.3401 9.86263L68.73 17.0128Z" fill="white"/>
<path d="M79.8945 17V7H81.4128V11.1064H87.3763V7H88.8945V17H87.3763V12.2865H81.4128V17H79.8945Z" fill="white"/>
<path d="M92.0002 16.5709L98.2282 8.73752L99.7355 9.10756L101.895 19L100.301 18.6087L99.7243 15.6316L95.3034 14.5463L93.4858 16.9356L92.0002 16.5709ZM95.9409 13.6938L99.5252 14.5737L99.0222 11.8574C98.868 11.0319 98.7678 10.3601 98.7217 9.84216C98.4481 10.3753 98.1201 10.8908 97.7379 11.3888L95.9409 13.6938Z" fill="white"/>
<path d="M114.895 23.7937L123.161 18.1533L124.492 18.9526L123.628 29.0411L122.221 28.1958L122.551 25.1814L118.649 22.8369L116.206 24.5815L114.895 23.7937ZM119.51 22.2111L122.674 24.1119L122.997 21.3684C123.094 20.5342 123.197 19.8629 123.306 19.3545C122.887 19.7828 122.421 20.1783 121.909 20.5409L119.51 22.2111Z" fill="white"/>
<path d="M42.8385 29.9027L41.789 19.3346L43.1956 18.5225L52.0721 24.5716L50.5848 25.4304L47.9685 23.5566L43.843 25.9385L44.2249 29.1023L42.8385 29.9027ZM43.6984 24.8177L47.0433 22.8866L44.6736 21.1601C43.9524 20.6364 43.3847 20.1918 42.9703 19.8264C43.1549 20.4363 43.2857 21.0722 43.3628 21.734L43.6984 24.8177Z" fill="white"/>
<path d="M55.3575 22.9941L51.7812 14.1426L53.2163 13.5628L61.5767 18.269L58.7689 11.3194L60.1102 10.7775L63.6864 19.629L62.2514 20.2088L53.8885 15.4966L56.6988 22.4522L55.3575 22.9941Z" fill="white"/>
<path d="M67.4808 18.4018L65.6616 9.04272L69.4721 8.30204C70.3323 8.13483 70.9975 8.05192 71.4676 8.05329C72.1254 8.05352 72.7096 8.17185 73.2202 8.40828C73.8848 8.71195 74.4237 9.16151 74.837 9.75695C75.2545 10.3472 75.5444 11.0594 75.7065 11.8935C75.8447 12.6043 75.869 13.2533 75.7795 13.8404C75.6901 14.4276 75.5271 14.9319 75.2906 15.3533C75.0532 15.7705 74.7712 16.119 74.4445 16.3989C74.122 16.6736 73.7121 16.9145 73.2146 17.1216C72.7222 17.3278 72.1415 17.4959 71.4724 17.6259L67.4808 18.4018ZM68.73 17.0128L71.0917 16.5537C71.8212 16.412 72.3809 16.2435 72.7711 16.0484C73.1663 15.8523 73.4668 15.6261 73.6728 15.3696C73.9628 15.0085 74.1554 14.5625 74.2506 14.0316C74.35 13.4955 74.331 12.8742 74.1937 12.1677C74.0034 11.1888 73.6662 10.4748 73.1822 10.0256C72.7023 9.5712 72.1734 9.30742 71.5953 9.23427C71.1781 9.18285 70.5344 9.24173 69.6642 9.41089L67.3401 9.86263L68.73 17.0128Z" fill="white"/>
<path d="M79.8945 17V7H81.4128V11.1064H87.3763V7H88.8945V17H87.3763V12.2865H81.4128V17H79.8945Z" fill="white"/>
<path d="M92.0002 16.5709L98.2282 8.73752L99.7355 9.10756L101.895 19L100.301 18.6087L99.7243 15.6316L95.3034 14.5463L93.4858 16.9356L92.0002 16.5709ZM95.9409 13.6938L99.5252 14.5737L99.0222 11.8574C98.868 11.0319 98.7678 10.3601 98.7217 9.84216C98.4481 10.3753 98.1201 10.8908 97.7379 11.3888L95.9409 13.6938Z" fill="white"/>
<path d="M114.895 23.7937L123.161 18.1533L124.492 18.9526L123.628 29.0411L122.221 28.1958L122.551 25.1814L118.649 22.8369L116.206 24.5815L114.895 23.7937ZM119.51 22.2111L122.674 24.1119L122.997 21.3684C123.094 20.5342 123.197 19.8629 123.306 19.3545C122.887 19.7828 122.421 20.1783 121.909 20.5409L119.51 22.2111Z" fill="white"/>
<path d="M36.9999 144.979L42.5962 137.277L45.0558 139.064C45.5566 139.428 45.9004 139.798 46.087 140.174C46.2791 140.549 46.3418 140.962 46.275 141.411C46.2138 141.859 46.0547 142.259 45.7977 142.613C45.5584 142.942 45.2572 143.197 44.8939 143.378C44.5306 143.558 44.1306 143.626 43.6937 143.581C43.991 144.006 44.1258 144.46 44.0983 144.943C44.0737 145.428 43.8985 145.895 43.5728 146.343C43.3107 146.704 43.0008 146.993 42.6431 147.209C42.2909 147.424 41.9584 147.546 41.6454 147.576C41.3324 147.605 40.9996 147.559 40.6467 147.436C40.2995 147.313 39.9171 147.099 39.4997 146.796L36.9999 144.979ZM41.1122 141.144L42.5299 142.174C42.9145 142.453 43.2119 142.624 43.4221 142.685C43.6987 142.769 43.957 142.761 44.1971 142.663C44.4402 142.566 44.6597 142.383 44.8557 142.114C45.0415 141.858 45.1522 141.596 45.1878 141.327C45.226 141.055 45.1736 140.814 45.0307 140.603C44.8904 140.389 44.5847 140.11 44.1136 139.768L42.8033 138.816L41.1122 141.144ZM38.5279 144.701L40.1601 145.887C40.4404 146.09 40.6461 146.221 40.7772 146.279C41.0075 146.382 41.2253 146.433 41.4307 146.433C41.6362 146.432 41.8495 146.37 42.0709 146.247C42.2948 146.121 42.4958 145.935 42.6739 145.69C42.8826 145.403 43.0007 145.109 43.0282 144.808C43.0582 144.503 42.9919 144.227 42.8294 143.981C42.6724 143.733 42.3852 143.457 41.9678 143.154L40.4518 142.053L38.5279 144.701Z" fill="white"/>
<path d="M49.579 147.342C50.204 145.87 51.1724 144.922 52.4841 144.498C53.7976 144.07 55.2127 144.178 56.7294 144.821C57.7226 145.243 58.5349 145.819 59.1663 146.549C59.7977 147.278 60.1724 148.083 60.2903 148.961C60.4148 149.838 60.2887 150.72 59.912 151.607C59.5301 152.507 58.9683 153.218 58.2266 153.741C57.4849 154.264 56.6324 154.538 55.6693 154.563C54.7079 154.583 53.7599 154.395 52.8254 153.998C51.8126 153.568 50.9931 152.982 50.3669 152.24C49.7406 151.498 49.3701 150.691 49.2554 149.819C49.1406 148.947 49.2485 148.121 49.579 147.342ZM51.0391 147.984C50.5853 149.053 50.5748 150.043 51.0075 150.955C51.4469 151.866 52.1926 152.544 53.2445 152.991C54.316 153.445 55.3285 153.509 56.2821 153.18C57.2406 152.854 57.9621 152.12 58.4467 150.978C58.7533 150.256 58.8712 149.563 58.8005 148.9C58.7364 148.235 58.4806 147.633 58.0332 147.096C57.5923 146.557 57.0172 146.136 56.3078 145.835C55.2999 145.407 54.3098 145.325 53.3377 145.588C52.3721 145.85 51.6059 146.648 51.0391 147.984Z" fill="white"/>
<path d="M71.6898 149.352L72.8609 149.58L71.7776 155.153C71.5892 156.122 71.3389 156.872 71.0269 157.403C70.7148 157.935 70.2602 158.329 69.6631 158.586C69.0709 158.84 68.3481 158.883 67.495 158.718C66.6659 158.556 66.0181 158.269 65.5514 157.855C65.0847 157.441 64.7958 156.918 64.6847 156.287C64.5745 155.651 64.6187 154.822 64.8173 153.8L65.9006 148.227L67.0718 148.454L65.9897 154.021C65.8269 154.859 65.7771 155.491 65.8403 155.917C65.9085 156.34 66.0947 156.693 66.399 156.975C66.7074 157.258 67.1131 157.448 67.6161 157.546C68.4774 157.714 69.1325 157.62 69.5814 157.266C70.0303 156.912 70.3725 156.129 70.6078 154.918L71.6898 149.352Z" fill="white"/>
<path d="M78.7945 159.58L78.9394 151.28L76.4655 151.237L76.4849 150.126L82.4366 150.23L82.4172 151.341L79.933 151.297L79.7882 159.597L78.7945 159.58Z" fill="white"/>
<path d="M86.6804 159.648L86.1843 150.183L87.3736 150.121L87.8697 159.586L86.6804 159.648Z" fill="white"/>
<path d="M103.205 155.392C103.205 155.392 104.217 155.934 105.23 156.476L104.26 157.473C103.248 156.931 103.248 156.931 102.236 156.389C101.751 157.18 101.649 157.247 100.798 157.778C99.9393 158.314 99.0446 158.615 98.1142 158.682C97.1838 158.748 96.3191 158.564 95.5203 158.131C94.7257 157.694 94.066 157.055 93.541 156.215C93.0184 155.378 92.7327 154.498 92.6839 153.574C92.6351 152.65 92.8483 151.791 93.3236 150.995C93.8032 150.198 94.4768 149.528 95.3443 148.986C96.2206 148.439 97.1272 148.133 98.0644 148.067C98.9991 147.998 99.8594 148.185 100.645 148.627C101.433 149.062 102.09 149.7 102.615 150.541C103.05 151.239 103.324 151.942 103.436 152.649C103.545 153.353 103.426 154.68 103.205 155.392ZM99.5411 153.14C100.138 153.463 101.067 154.209 101.907 154.754C102.269 153.691 102.073 152.557 101.32 151.349C100.891 150.663 100.385 150.145 99.8013 149.797C99.222 149.446 98.592 149.287 97.9112 149.321C97.2323 149.348 96.5799 149.557 95.9541 149.948C95.0174 150.533 94.4199 151.305 94.1615 152.265C93.9007 153.221 94.1255 154.268 94.8359 155.406C95.5246 156.509 96.3575 157.166 97.3346 157.376C98.3159 157.583 99.2814 157.39 100.231 156.797C100.68 156.517 101.056 156.178 101.359 155.779C99.9463 154.969 99.8109 154.878 98.6853 154.237L99.5411 153.14Z" fill="white"/>
<path d="M111.688 143.475L112.779 142.942L115.247 148.003C115.677 148.883 115.924 149.628 115.989 150.237C116.054 150.847 115.92 151.434 115.588 152.001C115.258 152.561 114.695 153.035 113.9 153.423C113.127 153.8 112.426 153.967 111.797 153.924C111.168 153.881 110.618 153.643 110.148 153.212C109.675 152.777 109.213 152.095 108.76 151.167L106.292 146.106L107.383 145.574L109.849 150.629C110.22 151.389 110.559 151.919 110.867 152.218C111.177 152.51 111.541 152.675 111.959 152.713C112.38 152.749 112.826 152.653 113.295 152.424C114.097 152.033 114.575 151.561 114.728 151.008C114.881 150.455 114.689 149.629 114.153 148.529L111.688 143.475Z" fill="white"/>
<path d="M122.332 148.726L117.2 140.513L122.799 137.015L123.404 137.984L118.83 140.842L120.402 143.358L124.686 140.681L125.288 141.645L121.004 144.321L122.751 147.117L127.505 144.147L128.11 145.116L122.332 148.726Z" fill="white"/>
<path fill-rule="evenodd" clip-rule="evenodd" d="M49.4417 51.0503H53.4417C54.1084 51.0503 55.3417 52.4503 54.9417 58.0503L55.4417 112.55C55.4417 114.05 54.7417 117.15 51.9417 117.55H48.4417C48.1084 117.717 47.6417 118.15 48.4417 118.55H67.9418C68.1084 118.384 68.3418 117.95 67.9418 117.55H64.4418C63.2751 117.217 61.1418 115.75 61.9418 112.55V83.2761H70.9418C66.4418 86.7008 59.6418 95.6503 68.4418 104.05C69.2751 104.884 71.5418 106.25 73.9418 105.05C74.4418 104.55 75.0418 103.25 73.4418 102.05C72.7751 101.717 71.2418 101.35 70.4418 102.55C69.4418 104.05 64.9418 97.0503 65.4418 96.0503C65.1084 93.7009 66.1418 87.8567 72.9418 83.2761L103.942 83.0503V114.824C103.942 115.399 103.642 116.55 102.442 116.55H99.9418C99.1418 116.55 98.2751 117.217 97.9418 117.55C97.7751 117.717 97.5418 118.05 97.9418 118.05H117.942C118.275 117.717 118.242 116.95 115.442 116.55H112.442C111.838 116.566 110.661 116.243 110.786 114.824C110.911 113.405 110.608 73.0503 110.442 53.0503C110.442 52.217 110.942 50.5503 112.942 50.5503H114.942C115.275 50.5503 115.942 50.4503 115.942 50.0503V49.0503H112.942C112.275 49.3836 110.542 50.0503 108.942 50.0503C108.542 50.0503 108.108 49.717 107.942 49.5503H102.942H98.9418C98.2751 49.717 97.3418 50.1503 98.9418 50.5503H101.442C102.275 50.3836 103.842 50.6503 103.442 53.0503L103.942 68.5503C103.942 69.0503 103.642 70.4503 102.442 72.0503C101.242 73.6503 98.9418 75.0503 97.9418 75.5503C97.4418 75.8837 96.1418 76.3503 94.9418 75.5503C93.7418 74.7503 92.4418 74.8837 91.9418 75.0503C91.4418 75.217 90.7418 75.7503 91.9418 76.5503C93.2751 77.217 95.2418 78.5503 92.4418 78.5503H89.9418C87.7751 76.8837 84.4418 74.7503 86.4418 79.5503C86.4418 79.717 86.3418 80.0503 85.9418 80.0503C85.9005 80.0503 85.8355 80.0571 85.7483 80.0662C84.7785 80.1677 81.0706 80.5554 76.9418 75.0503C76.6084 74.3837 76.3418 72.6503 77.9418 71.0503V68.0503C77.9418 67.5503 77.6418 66.7503 76.4418 67.5503C75.2418 68.3503 75.6084 67.5503 75.9418 67.0503C78.2751 66.217 82.2418 64.2503 79.4418 63.0503C76.6418 61.8503 77.2751 61.217 77.9418 61.0503C78.9418 60.8836 81.2418 61.1503 82.4418 63.5503C83.6418 65.9503 82.2751 66.217 81.4418 66.0503C80.6084 66.0503 79.0418 66.3503 79.4418 67.5503C79.6084 68.0503 80.2418 68.8503 81.4418 68.0503C82.1084 67.717 83.5418 66.7503 83.9418 65.5503C84.3418 64.3503 83.1084 62.3837 82.4418 61.5503C81.6084 60.717 79.1418 59.3503 75.9418 60.5503C72.7418 61.7503 71.9418 64.717 71.9418 66.0503C71.7751 68.3837 72.4418 73.7503 76.4418 76.5503C77.6084 77.5503 79.1418 79.0503 75.9418 77.0503C72.7418 75.0503 70.9418 70.8837 70.4418 69.0503C69.9418 66.5503 69.5418 60.8503 71.9418 58.0503C73.1084 56.5503 75.9418 54.0503 77.9418 56.0503C79.9418 58.0503 81.1084 57.217 81.4418 56.5503C81.4418 54.3836 82.3418 51.3503 85.9418 56.5503C87.9418 57.8836 91.3418 58.7503 88.9418 51.5503C88.1084 50.217 85.0418 47.9503 79.4418 49.5503C73.8418 51.1503 70.1084 57.5503 68.9418 60.5503C67.9418 64.8837 68.5418 74.8503 78.9418 80.0503L62.9418 80.0503C62.6084 80.0503 61.9418 79.8503 61.9418 79.0503V52.5503C61.9418 51.8836 62.3418 50.5503 63.9418 50.5503H66.4418C66.9418 50.3836 67.6418 49.8503 66.4418 49.0503H49.4417C48.775 49.3836 47.8417 50.2503 49.4417 51.0503ZM95 80H105V72C103.889 73.7778 100.333 77.8667 95 80Z" fill="white"/>
<path fill-rule="evenodd" clip-rule="evenodd" d="M83.5 143C116.361 143 143 116.361 143 83.5C143 50.6391 116.361 24 83.5 24C50.6391 24 24 50.6391 24 83.5C24 116.361 50.6391 143 83.5 143ZM83.5 145C117.466 145 145 117.466 145 83.5C145 49.5345 117.466 22 83.5 22C49.5345 22 22 49.5345 22 83.5C22 117.466 49.5345 145 83.5 145Z" fill="white"/>
</svg>
