<svg width="167" height="167" viewBox="0 0 167 167" fill="none" xmlns="http://www.w3.org/2000/svg">
<path fill-rule="evenodd" clip-rule="evenodd" d="M83.5 143C116.361 143 143 116.361 143 83.5C143 50.6391 116.361 24 83.5 24C50.6391 24 24 50.6391 24 83.5C24 116.361 50.6391 143 83.5 143ZM83.5 145C117.466 145 145 117.466 145 83.5C145 49.5345 117.466 22 83.5 22C49.5345 22 22 49.5345 22 83.5C22 117.466 49.5345 145 83.5 145Z" fill="#5A595E"/>
<path fill-rule="evenodd" clip-rule="evenodd" d="M83.5 165C128.511 165 165 128.511 165 83.5C165 38.4888 128.511 2 83.5 2C38.4888 2 2 38.4888 2 83.5C2 128.511 38.4888 165 83.5 165ZM83.5 167C129.616 167 167 129.616 167 83.5C167 37.3842 129.616 0 83.5 0C37.3842 0 0 37.3842 0 83.5C0 129.616 37.3842 167 83.5 167Z" fill="#5A595E"/>
<path fill-rule="evenodd" clip-rule="evenodd" d="M108.494 11.217L109.066 11.3729C109.134 11.3916 109.206 11.411 109.281 11.4312C110.176 11.6736 111.477 12.0256 112.536 12.5666C113.111 12.8602 113.671 13.2367 114.06 13.7301C114.466 14.2458 114.68 14.8871 114.532 15.6275C114.377 16.4019 113.999 16.9742 113.455 17.3428C112.928 17.6995 112.307 17.8254 111.72 17.8374C111.164 17.8487 110.592 17.7588 110.066 17.6221L111.995 22.25L110.795 22.75L108.409 17.0231L107.806 16.8222L106.511 20.7056L105.278 20.2945L106.782 15.7831L108.494 11.217ZM108.24 15.5967L109.144 15.898L109.185 15.9187C109.794 16.223 110.813 16.5556 111.694 16.5377C112.128 16.5288 112.476 16.4359 112.725 16.2667C112.958 16.1092 113.162 15.8482 113.257 15.3726C113.32 15.0568 113.244 14.7951 113.039 14.5346C112.816 14.2519 112.444 13.9791 111.945 13.7243C111.136 13.3109 110.143 13.0162 109.295 12.7828L108.24 15.5967Z" fill="#5A595E"/>
<path d="M42.8385 29.9027L41.789 19.3346L43.1956 18.5225L52.0721 24.5716L50.5848 25.4304L47.9685 23.5566L43.843 25.9385L44.2249 29.1023L42.8385 29.9027ZM43.6984 24.8177L47.0433 22.8866L44.6736 21.1601C43.9524 20.6364 43.3847 20.1918 42.9703 19.8264C43.1549 20.4363 43.2857 21.0722 43.3628 21.734L43.6984 24.8177Z" fill="#5A595E"/>
<path d="M55.3575 22.9939L51.7812 14.1425L53.2163 13.5627L61.5767 18.2688L58.7689 11.3193L60.1102 10.7774L63.6864 19.6288L62.2514 20.2086L53.8885 15.4964L56.6988 22.452L55.3575 22.9939Z" fill="#5A595E"/>
<path d="M67.4808 18.4018L65.6616 9.04272L69.4721 8.30204C70.3323 8.13483 70.9975 8.05192 71.4676 8.05329C72.1254 8.05352 72.7096 8.17185 73.2202 8.40828C73.8848 8.71195 74.4237 9.16151 74.837 9.75695C75.2545 10.3472 75.5444 11.0594 75.7065 11.8935C75.8447 12.6043 75.869 13.2533 75.7795 13.8404C75.6901 14.4276 75.5271 14.9319 75.2906 15.3533C75.0532 15.7705 74.7712 16.119 74.4445 16.3989C74.122 16.6736 73.7121 16.9145 73.2146 17.1216C72.7222 17.3278 72.1415 17.4959 71.4724 17.6259L67.4808 18.4018ZM68.73 17.0128L71.0917 16.5537C71.8212 16.412 72.3809 16.2435 72.7711 16.0484C73.1663 15.8523 73.4668 15.6261 73.6728 15.3696C73.9628 15.0085 74.1554 14.5625 74.2506 14.0316C74.35 13.4955 74.331 12.8742 74.1937 12.1677C74.0034 11.1888 73.6662 10.4748 73.1822 10.0256C72.7023 9.5712 72.1734 9.30742 71.5953 9.23427C71.1781 9.18285 70.5344 9.24173 69.6642 9.41089L67.3401 9.86263L68.73 17.0128Z" fill="#5A595E"/>
<path d="M79.8945 17V7H81.4128V11.1064H87.3763V7H88.8945V17H87.3763V12.2865H81.4128V17H79.8945Z" fill="#5A595E"/>
<path d="M92.0002 16.5709L98.2282 8.73752L99.7355 9.10756L101.895 19L100.301 18.6087L99.7243 15.6316L95.3034 14.5463L93.4858 16.9356L92.0002 16.5709ZM95.9409 13.6938L99.5252 14.5737L99.0222 11.8574C98.868 11.0319 98.7678 10.3601 98.7217 9.84216C98.4481 10.3753 98.1201 10.8908 97.7379 11.3888L95.9409 13.6938Z" fill="#5A595E"/>
<path d="M114.895 23.7937L123.161 18.1533L124.492 18.9526L123.628 29.0411L122.221 28.1958L122.551 25.1814L118.649 22.8369L116.206 24.5815L114.895 23.7937ZM119.51 22.2111L122.674 24.1119L122.997 21.3684C123.094 20.5342 123.197 19.8629 123.306 19.3545C122.887 19.7828 122.421 20.1783 121.909 20.5409L119.51 22.2111Z" fill="#5A595E"/>
<path d="M36.9999 145.077L42.5962 137.374L45.0558 139.161C45.5566 139.525 45.9004 139.895 46.087 140.271C46.2791 140.647 46.3418 141.059 46.275 141.508C46.2138 141.956 46.0547 142.357 45.7977 142.71C45.5584 143.04 45.2572 143.294 44.8939 143.475C44.5306 143.655 44.1306 143.723 43.6937 143.678C43.991 144.103 44.1258 144.557 44.0983 145.04C44.0737 145.525 43.8985 145.992 43.5728 146.44C43.3107 146.801 43.0008 147.09 42.6431 147.306C42.2909 147.521 41.9584 147.644 41.6454 147.673C41.3324 147.703 40.9996 147.656 40.6467 147.534C40.2995 147.41 39.9171 147.196 39.4997 146.893L36.9999 145.077ZM41.1122 141.241L42.5299 142.271C42.9145 142.55 43.2119 142.721 43.4221 142.783C43.6987 142.866 43.957 142.858 44.1971 142.76C44.4402 142.663 44.6597 142.48 44.8557 142.211C45.0415 141.955 45.1522 141.693 45.1878 141.424C45.226 141.152 45.1736 140.911 45.0307 140.7C44.8904 140.486 44.5847 140.208 44.1136 139.865L42.8033 138.913L41.1122 141.241ZM38.5279 144.798L40.1601 145.984C40.4404 146.188 40.6461 146.318 40.7772 146.376C41.0075 146.479 41.2253 146.53 41.4307 146.53C41.6362 146.529 41.8495 146.467 42.0709 146.345C42.2948 146.218 42.4958 146.033 42.6739 145.787C42.8826 145.5 43.0007 145.206 43.0282 144.905C43.0582 144.6 42.9919 144.325 42.8294 144.078C42.6724 143.83 42.3852 143.555 41.9678 143.251L40.4518 142.15L38.5279 144.798Z" fill="#5A595E"/>
<path d="M49.579 147.44C50.204 145.967 51.1724 145.019 52.4841 144.595C53.7976 144.167 55.2127 144.275 56.7294 144.919C57.7226 145.34 58.5349 145.916 59.1663 146.646C59.7977 147.376 60.1724 148.18 60.2903 149.058C60.4148 149.935 60.2887 150.817 59.912 151.704C59.5301 152.604 58.9683 153.315 58.2266 153.838C57.4849 154.362 56.6324 154.635 55.6693 154.66C54.7079 154.68 53.7599 154.492 52.8254 154.095C51.8126 153.665 50.9931 153.079 50.3669 152.338C49.7406 151.596 49.3701 150.788 49.2554 149.916C49.1406 149.044 49.2485 148.218 49.579 147.44ZM51.0391 148.081C50.5853 149.15 50.5748 150.14 51.0075 151.053C51.4469 151.963 52.1926 152.641 53.2445 153.088C54.316 153.543 55.3285 153.606 56.2821 153.277C57.2406 152.951 57.9621 152.217 58.4467 151.075C58.7533 150.353 58.8712 149.66 58.8005 148.997C58.7364 148.332 58.4806 147.731 58.0332 147.193C57.5923 146.654 57.0172 146.233 56.3078 145.932C55.2999 145.504 54.3098 145.422 53.3377 145.686C52.3721 145.947 51.6059 146.745 51.0391 148.081Z" fill="#5A595E"/>
<path d="M71.6898 149.449L72.8609 149.677L71.7776 155.25C71.5892 156.219 71.3389 156.969 71.0269 157.501C70.7148 158.032 70.2602 158.426 69.6631 158.683C69.0709 158.937 68.3481 158.981 67.495 158.815C66.6659 158.654 66.0181 158.366 65.5514 157.952C65.0847 157.538 64.7958 157.015 64.6847 156.384C64.5745 155.748 64.6187 154.919 64.8173 153.897L65.9006 148.324L67.0718 148.551L65.9897 154.118C65.8269 154.956 65.7771 155.588 65.8403 156.014C65.9085 156.437 66.0947 156.79 66.399 157.072C66.7074 157.355 67.1131 157.546 67.6161 157.643C68.4774 157.811 69.1325 157.717 69.5814 157.363C70.0303 157.009 70.3725 156.226 70.6078 155.016L71.6898 149.449Z" fill="#5A595E"/>
<path d="M78.7945 159.677L78.9394 151.377L76.4655 151.334L76.4849 150.224L82.4366 150.328L82.4172 151.438L79.933 151.395L79.7882 159.694L78.7945 159.677Z" fill="#5A595E"/>
<path d="M86.6804 159.746L86.1843 150.281L87.3736 150.218L87.8697 159.683L86.6804 159.746Z" fill="#5A595E"/>
<path d="M103.205 155.489C103.205 155.489 104.217 156.031 105.23 156.573L104.26 157.57C103.248 157.028 103.248 157.028 102.236 156.486C101.751 157.277 101.649 157.344 100.798 157.875C99.9393 158.411 99.0446 158.713 98.1142 158.779C97.1838 158.845 96.3191 158.662 95.5203 158.228C94.7257 157.791 94.066 157.153 93.541 156.312C93.0184 155.475 92.7327 154.595 92.6839 153.671C92.6351 152.747 92.8483 151.888 93.3236 151.093C93.8032 150.295 94.4768 149.625 95.3443 149.083C96.2206 148.536 97.1272 148.23 98.0644 148.165C98.9991 148.095 99.8594 148.282 100.645 148.724C101.433 149.159 102.09 149.797 102.615 150.638C103.05 151.336 103.324 152.039 103.436 152.746C103.545 153.45 103.426 154.777 103.205 155.489ZM99.5411 153.237C100.138 153.56 101.067 154.306 101.907 154.851C102.269 153.789 102.073 152.654 101.32 151.447C100.891 150.76 100.385 150.243 99.8013 149.894C99.222 149.543 98.592 149.384 97.9112 149.418C97.2323 149.445 96.5799 149.654 95.9541 150.045C95.0174 150.63 94.4199 151.402 94.1615 152.362C93.9007 153.319 94.1255 154.366 94.8359 155.503C95.5246 156.606 96.3575 157.263 97.3346 157.473C98.3159 157.68 99.2814 157.487 100.231 156.894C100.68 156.614 101.056 156.275 101.359 155.876C99.9463 155.066 99.8109 154.975 98.6853 154.334L99.5411 153.237Z" fill="#5A595E"/>
<path d="M111.688 143.572L112.779 143.039L115.247 148.1C115.677 148.98 115.924 149.725 115.989 150.334C116.054 150.944 115.92 151.532 115.588 152.098C115.258 152.658 114.695 153.133 113.9 153.52C113.127 153.897 112.426 154.064 111.797 154.021C111.168 153.978 110.618 153.741 110.148 153.309C109.675 152.874 109.213 152.192 108.76 151.264L106.292 146.203L107.383 145.671L109.849 150.726C110.22 151.487 110.559 152.016 110.867 152.315C111.177 152.607 111.541 152.773 111.959 152.81C112.38 152.846 112.826 152.75 113.295 152.521C114.097 152.13 114.575 151.658 114.728 151.105C114.881 150.552 114.689 149.726 114.153 148.626L111.688 143.572Z" fill="#5A595E"/>
<path d="M122.332 148.823L117.2 140.61L122.799 137.112L123.404 138.081L118.83 140.939L120.402 143.455L124.686 140.778L125.288 141.742L121.004 144.418L122.751 147.214L127.505 144.244L128.11 145.213L122.332 148.823Z" fill="#5A595E"/>
<path fill-rule="evenodd" clip-rule="evenodd" d="M49.4417 51.0503H53.4417C54.1084 51.0503 55.3417 52.4503 54.9417 58.0503L55.4417 112.55C55.4417 114.05 54.7417 117.15 51.9417 117.55H48.4417C48.1084 117.717 47.6417 118.15 48.4417 118.55H67.9418C68.1084 118.384 68.3418 117.95 67.9418 117.55H64.4418C63.2751 117.217 61.1418 115.75 61.9418 112.55V83.2761H70.9418C66.4418 86.7008 59.6418 95.6503 68.4418 104.05C69.2751 104.884 71.5418 106.25 73.9418 105.05C74.4418 104.55 75.0418 103.25 73.4418 102.05C72.7751 101.717 71.2418 101.35 70.4418 102.55C69.4418 104.05 64.9418 97.0503 65.4418 96.0503C65.1084 93.7008 66.1418 87.8567 72.9418 83.2761L103.942 83.0503V114.824C103.942 115.399 103.642 116.55 102.442 116.55H99.9418C99.1418 116.55 98.2751 117.217 97.9418 117.55C97.7751 117.717 97.5418 118.05 97.9418 118.05H117.942C118.275 117.717 118.242 116.95 115.442 116.55H112.442C111.838 116.566 110.661 116.243 110.786 114.824C110.911 113.405 110.608 73.0503 110.442 53.0503C110.442 52.217 110.942 50.5503 112.942 50.5503H114.942C115.275 50.5503 115.942 50.4503 115.942 50.0503V49.0503H112.942C112.275 49.3836 110.542 50.0503 108.942 50.0503C108.542 50.0503 108.108 49.717 107.942 49.5503H102.942H98.9418C98.2751 49.717 97.3418 50.1503 98.9418 50.5503H101.442C102.275 50.3836 103.842 50.6503 103.442 53.0503L103.942 68.5503C103.942 69.0503 103.642 70.4503 102.442 72.0503C101.242 73.6503 98.9418 75.0503 97.9418 75.5503C97.4418 75.8837 96.1418 76.3503 94.9418 75.5503C93.7418 74.7503 92.4418 74.8837 91.9418 75.0503C91.4418 75.217 90.7418 75.7503 91.9418 76.5503C93.2751 77.217 95.2418 78.5503 92.4418 78.5503H89.9418C87.7751 76.8837 84.4418 74.7503 86.4418 79.5503C86.4418 79.717 86.3418 80.0503 85.9418 80.0503C85.9005 80.0503 85.8355 80.0571 85.7483 80.0662C84.7785 80.1677 81.0706 80.5554 76.9418 75.0503C76.6084 74.3837 76.3418 72.6503 77.9418 71.0503V68.0503C77.9418 67.5503 77.6418 66.7503 76.4418 67.5503C75.2418 68.3503 75.6084 67.5503 75.9418 67.0503C78.2751 66.217 82.2418 64.2503 79.4418 63.0503C76.6418 61.8503 77.2751 61.217 77.9418 61.0503C78.9418 60.8836 81.2418 61.1503 82.4418 63.5503C83.6418 65.9503 82.2751 66.217 81.4418 66.0503C80.6084 66.0503 79.0418 66.3503 79.4418 67.5503C79.6084 68.0503 80.2418 68.8503 81.4418 68.0503C82.1084 67.717 83.5418 66.7503 83.9418 65.5503C84.3418 64.3503 83.1084 62.3837 82.4418 61.5503C81.6084 60.717 79.1418 59.3503 75.9418 60.5503C72.7418 61.7503 71.9418 64.717 71.9418 66.0503C71.7751 68.3837 72.4418 73.7503 76.4418 76.5503C77.6084 77.5503 79.1418 79.0503 75.9418 77.0503C72.7418 75.0503 70.9418 70.8837 70.4418 69.0503C69.9418 66.5503 69.5418 60.8503 71.9418 58.0503C73.1084 56.5503 75.9418 54.0503 77.9418 56.0503C79.9418 58.0503 81.1084 57.217 81.4418 56.5503C81.4418 54.3836 82.3418 51.3503 85.9418 56.5503C87.9418 57.8836 91.3418 58.7503 88.9418 51.5503C88.1084 50.217 85.0418 47.9503 79.4418 49.5503C73.8418 51.1503 70.1084 57.5503 68.9418 60.5503C67.9418 64.8837 68.5418 74.8503 78.9418 80.0503L62.9418 80.0503C62.6084 80.0503 61.9418 79.8503 61.9418 79.0503V52.5503C61.9418 51.8836 62.3418 50.5503 63.9418 50.5503H66.4418C66.9418 50.3836 67.6418 49.8503 66.4418 49.0503H49.4417C48.775 49.3836 47.8417 50.2503 49.4417 51.0503ZM95 80H105V72C103.889 73.7778 100.333 77.8667 95 80Z" fill="#5A595E"/>
</svg>
